<mxfile host="app.diagrams.net" agent="Mozilla/5.0 (Windows NT 10.0; Win64; x64) AppleWebKit/537.36 (KHTML, like Gecko) Chrome/134.0.0.0 Safari/537.36" version="26.2.2">
  <diagram id="C5RBs43oDa-KdzZeNtuy" name="Page-1">
    <mxGraphModel dx="2895" dy="2306" grid="1" gridSize="10" guides="1" tooltips="1" connect="1" arrows="1" fold="1" page="1" pageScale="1" pageWidth="827" pageHeight="1169" math="0" shadow="0">
      <root>
        <mxCell id="WIyWlLk6GJQsqaUBKTNV-0" />
        <mxCell id="WIyWlLk6GJQsqaUBKTNV-1" parent="WIyWlLk6GJQsqaUBKTNV-0" />
        <mxCell id="aMiHPkYjvUGEzZOQz3G9-63" value="Application Loop" style="swimlane;whiteSpace=wrap;html=1;" parent="WIyWlLk6GJQsqaUBKTNV-1" vertex="1">
          <mxGeometry x="-110" y="-1160" width="500" height="1060" as="geometry">
            <mxRectangle x="30" y="-210" width="100" height="30" as="alternateBounds" />
          </mxGeometry>
        </mxCell>
        <mxCell id="aMiHPkYjvUGEzZOQz3G9-64" value="" style="group" parent="aMiHPkYjvUGEzZOQz3G9-63" connectable="0" vertex="1">
          <mxGeometry x="20" y="50" width="430" height="970" as="geometry" />
        </mxCell>
        <mxCell id="aMiHPkYjvUGEzZOQz3G9-27" value="Application Loop" style="rounded=1;arcSize=20;strokeWidth=2" parent="aMiHPkYjvUGEzZOQz3G9-64" vertex="1">
          <mxGeometry x="85.75" width="160" height="54" as="geometry" />
        </mxCell>
        <mxCell id="aMiHPkYjvUGEzZOQz3G9-51" value="true" style="edgeStyle=orthogonalEdgeStyle;rounded=0;orthogonalLoop=1;jettySize=auto;html=1;entryX=0;entryY=0.5;entryDx=0;entryDy=0;exitX=1;exitY=0.5;exitDx=0;exitDy=0;" parent="aMiHPkYjvUGEzZOQz3G9-64" source="aMiHPkYjvUGEzZOQz3G9-28" target="aMiHPkYjvUGEzZOQz3G9-29" edge="1">
          <mxGeometry x="-0.235" y="-1" relative="1" as="geometry">
            <mxPoint as="offset" />
          </mxGeometry>
        </mxCell>
        <mxCell id="aMiHPkYjvUGEzZOQz3G9-28" value="Massage 확인" style="rhombus;strokeWidth=2;whiteSpace=wrap;" parent="aMiHPkYjvUGEzZOQz3G9-64" vertex="1">
          <mxGeometry x="106.37" y="140" width="116.75" height="115" as="geometry" />
        </mxCell>
        <mxCell id="8JrmR98-faiE8qJkN5cM-10" style="edgeStyle=orthogonalEdgeStyle;rounded=0;orthogonalLoop=1;jettySize=auto;html=1;entryX=1;entryY=0.5;entryDx=0;entryDy=0;" parent="aMiHPkYjvUGEzZOQz3G9-64" edge="1">
          <mxGeometry relative="1" as="geometry">
            <mxPoint x="245.75" y="27" as="targetPoint" />
            <mxPoint x="340" y="168.5" as="sourcePoint" />
            <Array as="points">
              <mxPoint x="340" y="200" />
              <mxPoint x="440" y="200" />
              <mxPoint x="440" y="27" />
            </Array>
          </mxGeometry>
        </mxCell>
        <mxCell id="aMiHPkYjvUGEzZOQz3G9-29" value="MessagePump 실행" style="rounded=1;arcSize=20;strokeWidth=2" parent="aMiHPkYjvUGEzZOQz3G9-64" vertex="1">
          <mxGeometry x="260" y="168.5" width="140" height="58" as="geometry" />
        </mxCell>
        <mxCell id="aMiHPkYjvUGEzZOQz3G9-38" value="PeekMessage" style="curved=1;startArrow=none;endArrow=block;exitX=0.5;exitY=1;entryX=0.5;entryY=0;rounded=0;" parent="aMiHPkYjvUGEzZOQz3G9-64" source="aMiHPkYjvUGEzZOQz3G9-27" target="aMiHPkYjvUGEzZOQz3G9-28" edge="1">
          <mxGeometry relative="1" as="geometry">
            <Array as="points" />
          </mxGeometry>
        </mxCell>
        <mxCell id="aMiHPkYjvUGEzZOQz3G9-41" value="false" style="curved=0;startArrow=none;endArrow=block;exitX=0.5;exitY=1;entryX=0.5;entryY=0;rounded=0;exitDx=0;exitDy=0;entryDx=0;entryDy=0;" parent="aMiHPkYjvUGEzZOQz3G9-64" source="aMiHPkYjvUGEzZOQz3G9-28" target="aMiHPkYjvUGEzZOQz3G9-31" edge="1">
          <mxGeometry x="-0.5998" y="1" relative="1" as="geometry">
            <mxPoint x="276" y="435" as="targetPoint" />
            <mxPoint as="offset" />
          </mxGeometry>
        </mxCell>
        <mxCell id="aMiHPkYjvUGEzZOQz3G9-65" value="Application Update" style="swimlane;whiteSpace=wrap;html=1;rounded=1;" parent="aMiHPkYjvUGEzZOQz3G9-64" vertex="1">
          <mxGeometry x="23" y="290" width="327" height="410" as="geometry">
            <mxRectangle x="23" y="360" width="140" height="30" as="alternateBounds" />
          </mxGeometry>
        </mxCell>
        <mxCell id="8JrmR98-faiE8qJkN5cM-3" value="true" style="edgeStyle=orthogonalEdgeStyle;rounded=0;orthogonalLoop=1;jettySize=auto;html=1;" parent="aMiHPkYjvUGEzZOQz3G9-65" source="aMiHPkYjvUGEzZOQz3G9-31" target="aMiHPkYjvUGEzZOQz3G9-84" edge="1">
          <mxGeometry x="-0.1658" relative="1" as="geometry">
            <mxPoint as="offset" />
          </mxGeometry>
        </mxCell>
        <mxCell id="aMiHPkYjvUGEzZOQz3G9-31" value="Is Editor" style="rhombus;strokeWidth=2;whiteSpace=wrap;" parent="aMiHPkYjvUGEzZOQz3G9-65" vertex="1">
          <mxGeometry x="87.5" y="50" width="110" height="100" as="geometry" />
        </mxCell>
        <mxCell id="aMiHPkYjvUGEzZOQz3G9-32" value="EditorManager Update" style="rounded=1;arcSize=20;strokeWidth=2" parent="aMiHPkYjvUGEzZOQz3G9-65" vertex="1">
          <mxGeometry x="29.5" y="247" width="226" height="54" as="geometry" />
        </mxCell>
        <mxCell id="aMiHPkYjvUGEzZOQz3G9-33" value="SceneManager Update" style="rounded=1;arcSize=20;strokeWidth=2" parent="aMiHPkYjvUGEzZOQz3G9-65" vertex="1">
          <mxGeometry x="29.5" y="320" width="225" height="54" as="geometry" />
        </mxCell>
        <mxCell id="aMiHPkYjvUGEzZOQz3G9-43" value="" style="curved=1;startArrow=none;endArrow=block;exitX=0.5;exitY=1;entryX=0.5;entryY=0;rounded=0;exitDx=0;exitDy=0;" parent="aMiHPkYjvUGEzZOQz3G9-65" source="aMiHPkYjvUGEzZOQz3G9-84" target="aMiHPkYjvUGEzZOQz3G9-32" edge="1">
          <mxGeometry x="-0.1111" relative="1" as="geometry">
            <mxPoint as="offset" />
          </mxGeometry>
        </mxCell>
        <mxCell id="aMiHPkYjvUGEzZOQz3G9-45" value="false" style="curved=0;startArrow=none;endArrow=block;exitX=1;exitY=0.5;entryX=1;entryY=0.5;rounded=0;exitDx=0;exitDy=0;entryDx=0;entryDy=0;" parent="aMiHPkYjvUGEzZOQz3G9-65" source="aMiHPkYjvUGEzZOQz3G9-31" target="aMiHPkYjvUGEzZOQz3G9-33" edge="1">
          <mxGeometry x="-0.7819" relative="1" as="geometry">
            <Array as="points">
              <mxPoint x="289.5" y="100" />
              <mxPoint x="289.5" y="347" />
            </Array>
            <mxPoint as="offset" />
          </mxGeometry>
        </mxCell>
        <mxCell id="aMiHPkYjvUGEzZOQz3G9-48" value="" style="curved=1;startArrow=none;endArrow=block;exitX=0.5;exitY=1;entryX=0.5;entryY=0;rounded=0;exitDx=0;exitDy=0;entryDx=0;entryDy=0;" parent="aMiHPkYjvUGEzZOQz3G9-65" source="aMiHPkYjvUGEzZOQz3G9-32" target="aMiHPkYjvUGEzZOQz3G9-33" edge="1">
          <mxGeometry relative="1" as="geometry">
            <mxPoint x="142.5" y="320" as="targetPoint" />
          </mxGeometry>
        </mxCell>
        <mxCell id="8JrmR98-faiE8qJkN5cM-11" value="" style="group" parent="aMiHPkYjvUGEzZOQz3G9-65" connectable="0" vertex="1">
          <mxGeometry x="28.5" y="170" width="226" height="57" as="geometry" />
        </mxCell>
        <mxCell id="aMiHPkYjvUGEzZOQz3G9-84" value="TimeSystem Update" style="rounded=1;whiteSpace=wrap;html=1;strokeWidth=2;" parent="8JrmR98-faiE8qJkN5cM-11" vertex="1">
          <mxGeometry y="3" width="226" height="54" as="geometry" />
        </mxCell>
        <mxCell id="aMiHPkYjvUGEzZOQz3G9-114" value="&lt;font style=&quot;font-size: 9px;&quot;&gt;델타 타임 업데이트&lt;/font&gt;" style="text;html=1;align=center;verticalAlign=middle;whiteSpace=wrap;rounded=0;labelBorderColor=none;fontColor=#00994C;" parent="8JrmR98-faiE8qJkN5cM-11" vertex="1">
          <mxGeometry x="47" width="134" height="30" as="geometry" />
        </mxCell>
        <mxCell id="aMiHPkYjvUGEzZOQz3G9-56" style="edgeStyle=orthogonalEdgeStyle;rounded=0;orthogonalLoop=1;jettySize=auto;html=1;exitX=0.5;exitY=1;exitDx=0;exitDy=0;entryX=0.5;entryY=0;entryDx=0;entryDy=0;" parent="aMiHPkYjvUGEzZOQz3G9-64" source="aMiHPkYjvUGEzZOQz3G9-33" target="aMiHPkYjvUGEzZOQz3G9-55" edge="1">
          <mxGeometry relative="1" as="geometry">
            <mxPoint x="165" y="810" as="sourcePoint" />
          </mxGeometry>
        </mxCell>
        <mxCell id="aMiHPkYjvUGEzZOQz3G9-75" value="false" style="edgeStyle=orthogonalEdgeStyle;rounded=0;orthogonalLoop=1;jettySize=auto;html=1;entryX=1;entryY=0.5;entryDx=0;entryDy=0;exitX=1;exitY=0.5;exitDx=0;exitDy=0;" parent="aMiHPkYjvUGEzZOQz3G9-64" source="aMiHPkYjvUGEzZOQz3G9-55" target="aMiHPkYjvUGEzZOQz3G9-27" edge="1">
          <mxGeometry x="-0.9503" relative="1" as="geometry">
            <Array as="points">
              <mxPoint x="440" y="775" />
              <mxPoint x="440" y="27" />
            </Array>
            <mxPoint as="offset" />
          </mxGeometry>
        </mxCell>
        <mxCell id="8JrmR98-faiE8qJkN5cM-6" value="true" style="edgeStyle=orthogonalEdgeStyle;rounded=0;orthogonalLoop=1;jettySize=auto;html=1;exitX=0.5;exitY=1;exitDx=0;exitDy=0;entryX=0.5;entryY=0;entryDx=0;entryDy=0;" parent="aMiHPkYjvUGEzZOQz3G9-64" source="aMiHPkYjvUGEzZOQz3G9-55" target="8JrmR98-faiE8qJkN5cM-5" edge="1">
          <mxGeometry x="-0.3139" relative="1" as="geometry">
            <mxPoint as="offset" />
          </mxGeometry>
        </mxCell>
        <mxCell id="aMiHPkYjvUGEzZOQz3G9-55" value="&lt;span style=&quot;text-wrap-mode: nowrap;&quot;&gt;Application&lt;/span&gt;.Quit" style="rhombus;whiteSpace=wrap;html=1;" parent="aMiHPkYjvUGEzZOQz3G9-64" vertex="1">
          <mxGeometry x="107.37" y="720" width="113.76" height="110" as="geometry" />
        </mxCell>
        <mxCell id="8JrmR98-faiE8qJkN5cM-5" value="SceneManager Cleanup" style="rounded=1;whiteSpace=wrap;html=1;" parent="aMiHPkYjvUGEzZOQz3G9-64" vertex="1">
          <mxGeometry x="86.81" y="860" width="155.88" height="40" as="geometry" />
        </mxCell>
        <mxCell id="aMiHPkYjvUGEzZOQz3G9-57" value="&lt;span style=&quot;text-wrap-mode: nowrap;&quot;&gt;Application&amp;nbsp;&lt;/span&gt;&lt;span style=&quot;background-color: transparent; color: light-dark(rgb(0, 0, 0), rgb(255, 255, 255));&quot;&gt;End&lt;/span&gt;" style="rounded=1;whiteSpace=wrap;html=1;" parent="aMiHPkYjvUGEzZOQz3G9-64" vertex="1">
          <mxGeometry x="112.63000000000001" y="917" width="104.25" height="40" as="geometry" />
        </mxCell>
        <mxCell id="aMiHPkYjvUGEzZOQz3G9-58" value="" style="edgeStyle=orthogonalEdgeStyle;rounded=0;orthogonalLoop=1;jettySize=auto;html=1;entryX=0.5;entryY=0;entryDx=0;entryDy=0;exitX=0.5;exitY=1;exitDx=0;exitDy=0;" parent="aMiHPkYjvUGEzZOQz3G9-64" source="8JrmR98-faiE8qJkN5cM-5" target="aMiHPkYjvUGEzZOQz3G9-57" edge="1">
          <mxGeometry relative="1" as="geometry">
            <mxPoint x="290" y="905" as="sourcePoint" />
          </mxGeometry>
        </mxCell>
        <mxCell id="aMiHPkYjvUGEzZOQz3G9-83" value="Scene Manager Update" style="swimlane;whiteSpace=wrap;html=1;" parent="WIyWlLk6GJQsqaUBKTNV-1" vertex="1">
          <mxGeometry x="414" y="-1160" width="356" height="530" as="geometry" />
        </mxCell>
        <mxCell id="aMiHPkYjvUGEzZOQz3G9-92" style="edgeStyle=orthogonalEdgeStyle;rounded=0;orthogonalLoop=1;jettySize=auto;html=1;entryX=0.5;entryY=0;entryDx=0;entryDy=0;" parent="aMiHPkYjvUGEzZOQz3G9-83" source="aMiHPkYjvUGEzZOQz3G9-85" target="aMiHPkYjvUGEzZOQz3G9-91" edge="1">
          <mxGeometry relative="1" as="geometry" />
        </mxCell>
        <mxCell id="aMiHPkYjvUGEzZOQz3G9-85" value="ObjectsAwake" style="rounded=1;whiteSpace=wrap;html=1;" parent="aMiHPkYjvUGEzZOQz3G9-83" vertex="1">
          <mxGeometry x="48.5" y="40" width="120" height="30" as="geometry" />
        </mxCell>
        <mxCell id="aMiHPkYjvUGEzZOQz3G9-94" style="edgeStyle=orthogonalEdgeStyle;rounded=0;orthogonalLoop=1;jettySize=auto;html=1;exitX=0.5;exitY=1;exitDx=0;exitDy=0;entryX=0.5;entryY=0;entryDx=0;entryDy=0;" parent="aMiHPkYjvUGEzZOQz3G9-83" source="aMiHPkYjvUGEzZOQz3G9-91" target="aMiHPkYjvUGEzZOQz3G9-93" edge="1">
          <mxGeometry relative="1" as="geometry" />
        </mxCell>
        <mxCell id="aMiHPkYjvUGEzZOQz3G9-91" value="ObjectsOnEnable" style="rounded=1;whiteSpace=wrap;html=1;" parent="aMiHPkYjvUGEzZOQz3G9-83" vertex="1">
          <mxGeometry x="48.5" y="90" width="120" height="30" as="geometry" />
        </mxCell>
        <mxCell id="aMiHPkYjvUGEzZOQz3G9-97" style="edgeStyle=orthogonalEdgeStyle;rounded=0;orthogonalLoop=1;jettySize=auto;html=1;exitX=0.5;exitY=1;exitDx=0;exitDy=0;entryX=0.5;entryY=0;entryDx=0;entryDy=0;" parent="aMiHPkYjvUGEzZOQz3G9-83" source="aMiHPkYjvUGEzZOQz3G9-93" target="aMiHPkYjvUGEzZOQz3G9-95" edge="1">
          <mxGeometry relative="1" as="geometry" />
        </mxCell>
        <mxCell id="aMiHPkYjvUGEzZOQz3G9-93" value="ObjectsStart" style="rounded=1;whiteSpace=wrap;html=1;" parent="aMiHPkYjvUGEzZOQz3G9-83" vertex="1">
          <mxGeometry x="48.5" y="140" width="120" height="30" as="geometry" />
        </mxCell>
        <mxCell id="aMiHPkYjvUGEzZOQz3G9-102" value="true" style="edgeStyle=orthogonalEdgeStyle;rounded=0;orthogonalLoop=1;jettySize=auto;html=1;exitX=1;exitY=0.5;exitDx=0;exitDy=0;entryX=0;entryY=0.5;entryDx=0;entryDy=0;" parent="aMiHPkYjvUGEzZOQz3G9-83" source="aMiHPkYjvUGEzZOQz3G9-95" target="aMiHPkYjvUGEzZOQz3G9-98" edge="1">
          <mxGeometry x="-0.3187" relative="1" as="geometry">
            <mxPoint as="offset" />
          </mxGeometry>
        </mxCell>
        <mxCell id="aMiHPkYjvUGEzZOQz3G9-105" style="edgeStyle=orthogonalEdgeStyle;rounded=0;orthogonalLoop=1;jettySize=auto;html=1;entryX=0.5;entryY=0;entryDx=0;entryDy=0;" parent="aMiHPkYjvUGEzZOQz3G9-83" source="aMiHPkYjvUGEzZOQz3G9-95" target="aMiHPkYjvUGEzZOQz3G9-104" edge="1">
          <mxGeometry relative="1" as="geometry" />
        </mxCell>
        <mxCell id="aMiHPkYjvUGEzZOQz3G9-106" value="false" style="edgeStyle=orthogonalEdgeStyle;rounded=0;orthogonalLoop=1;jettySize=auto;html=1;" parent="aMiHPkYjvUGEzZOQz3G9-83" source="aMiHPkYjvUGEzZOQz3G9-95" target="aMiHPkYjvUGEzZOQz3G9-104" edge="1">
          <mxGeometry relative="1" as="geometry" />
        </mxCell>
        <mxCell id="aMiHPkYjvUGEzZOQz3G9-95" value="FixedUpdate&lt;div&gt;주기 확인&lt;/div&gt;" style="rhombus;whiteSpace=wrap;html=1;" parent="aMiHPkYjvUGEzZOQz3G9-83" vertex="1">
          <mxGeometry x="54" y="190" width="109" height="110" as="geometry" />
        </mxCell>
        <mxCell id="aMiHPkYjvUGEzZOQz3G9-103" style="edgeStyle=orthogonalEdgeStyle;rounded=0;orthogonalLoop=1;jettySize=auto;html=1;entryX=0.5;entryY=0;entryDx=0;entryDy=0;" parent="aMiHPkYjvUGEzZOQz3G9-83" source="aMiHPkYjvUGEzZOQz3G9-98" target="aMiHPkYjvUGEzZOQz3G9-95" edge="1">
          <mxGeometry relative="1" as="geometry">
            <Array as="points">
              <mxPoint x="258.5" y="180" />
              <mxPoint x="108.5" y="180" />
            </Array>
          </mxGeometry>
        </mxCell>
        <mxCell id="aMiHPkYjvUGEzZOQz3G9-98" value="ObjectsFixedUpdate" style="rounded=1;whiteSpace=wrap;html=1;" parent="aMiHPkYjvUGEzZOQz3G9-83" vertex="1">
          <mxGeometry x="198.5" y="230" width="120" height="30" as="geometry" />
        </mxCell>
        <mxCell id="aMiHPkYjvUGEzZOQz3G9-108" style="edgeStyle=orthogonalEdgeStyle;rounded=0;orthogonalLoop=1;jettySize=auto;html=1;entryX=0.5;entryY=0;entryDx=0;entryDy=0;" parent="aMiHPkYjvUGEzZOQz3G9-83" source="aMiHPkYjvUGEzZOQz3G9-104" target="aMiHPkYjvUGEzZOQz3G9-107" edge="1">
          <mxGeometry relative="1" as="geometry" />
        </mxCell>
        <mxCell id="aMiHPkYjvUGEzZOQz3G9-104" value="ObjectsUpdate" style="rounded=1;whiteSpace=wrap;html=1;" parent="aMiHPkYjvUGEzZOQz3G9-83" vertex="1">
          <mxGeometry x="48.5" y="330" width="120" height="30" as="geometry" />
        </mxCell>
        <mxCell id="aMiHPkYjvUGEzZOQz3G9-111" value="" style="edgeStyle=orthogonalEdgeStyle;rounded=0;orthogonalLoop=1;jettySize=auto;html=1;" parent="aMiHPkYjvUGEzZOQz3G9-83" source="aMiHPkYjvUGEzZOQz3G9-107" target="aMiHPkYjvUGEzZOQz3G9-109" edge="1">
          <mxGeometry relative="1" as="geometry" />
        </mxCell>
        <mxCell id="aMiHPkYjvUGEzZOQz3G9-107" value="ObjectsLateUpdate" style="rounded=1;whiteSpace=wrap;html=1;" parent="aMiHPkYjvUGEzZOQz3G9-83" vertex="1">
          <mxGeometry x="48.5" y="380" width="120" height="30" as="geometry" />
        </mxCell>
        <mxCell id="aMiHPkYjvUGEzZOQz3G9-113" value="" style="edgeStyle=orthogonalEdgeStyle;rounded=0;orthogonalLoop=1;jettySize=auto;html=1;" parent="aMiHPkYjvUGEzZOQz3G9-83" source="aMiHPkYjvUGEzZOQz3G9-109" target="aMiHPkYjvUGEzZOQz3G9-112" edge="1">
          <mxGeometry relative="1" as="geometry" />
        </mxCell>
        <mxCell id="aMiHPkYjvUGEzZOQz3G9-109" value="ObjectsOnDisable" style="rounded=1;whiteSpace=wrap;html=1;" parent="aMiHPkYjvUGEzZOQz3G9-83" vertex="1">
          <mxGeometry x="48.5" y="430" width="120" height="30" as="geometry" />
        </mxCell>
        <mxCell id="aMiHPkYjvUGEzZOQz3G9-112" value="ObjectsAddToLifeCycle" style="rounded=1;whiteSpace=wrap;html=1;" parent="aMiHPkYjvUGEzZOQz3G9-83" vertex="1">
          <mxGeometry x="37.5" y="480" width="144" height="30" as="geometry" />
        </mxCell>
        <mxCell id="aMiHPkYjvUGEzZOQz3G9-115" value="&lt;font style=&quot;font-size: 9px;&quot;&gt;Awake는&amp;nbsp;&lt;span style=&quot;background-color: transparent; color: light-dark(rgb(0, 0, 0), rgb(255, 255, 255));&quot;&gt;컴포넌트별 1회&lt;/span&gt;&lt;/font&gt;" style="text;html=1;align=center;verticalAlign=middle;whiteSpace=wrap;rounded=0;" parent="aMiHPkYjvUGEzZOQz3G9-83" vertex="1">
          <mxGeometry x="158.5" y="40" width="134" height="30" as="geometry" />
        </mxCell>
        <mxCell id="aMiHPkYjvUGEzZOQz3G9-116" value="&lt;font style=&quot;font-size: 9px;&quot;&gt;Active or Enable 변경시&lt;span style=&quot;background-color: transparent; color: light-dark(rgb(0, 0, 0), rgb(255, 255, 255));&quot;&gt;&amp;nbsp;&lt;/span&gt;&lt;/font&gt;" style="text;html=1;align=center;verticalAlign=middle;whiteSpace=wrap;rounded=0;" parent="aMiHPkYjvUGEzZOQz3G9-83" vertex="1">
          <mxGeometry x="158.5" y="90" width="134" height="30" as="geometry" />
        </mxCell>
        <mxCell id="aMiHPkYjvUGEzZOQz3G9-117" value="&lt;font size=&quot;1&quot;&gt;Start는 컴포넌트별 1회&lt;/font&gt;" style="text;html=1;align=center;verticalAlign=middle;whiteSpace=wrap;rounded=0;" parent="aMiHPkYjvUGEzZOQz3G9-83" vertex="1">
          <mxGeometry x="158.5" y="140" width="134" height="30" as="geometry" />
        </mxCell>
        <mxCell id="aMiHPkYjvUGEzZOQz3G9-118" value="&lt;font style=&quot;font-size: 9px;&quot;&gt;Active or Enable 변경시&lt;span style=&quot;background-color: transparent; color: light-dark(rgb(0, 0, 0), rgb(255, 255, 255));&quot;&gt;&amp;nbsp;&lt;/span&gt;&lt;/font&gt;" style="text;html=1;align=center;verticalAlign=middle;whiteSpace=wrap;rounded=0;" parent="aMiHPkYjvUGEzZOQz3G9-83" vertex="1">
          <mxGeometry x="168.5" y="430" width="120" height="30" as="geometry" />
        </mxCell>
        <mxCell id="aMiHPkYjvUGEzZOQz3G9-119" value="&lt;font size=&quot;1&quot;&gt;매 프레임 호출&lt;/font&gt;" style="text;html=1;align=center;verticalAlign=middle;whiteSpace=wrap;rounded=0;" parent="aMiHPkYjvUGEzZOQz3G9-83" vertex="1">
          <mxGeometry x="158.5" y="330" width="120" height="30" as="geometry" />
        </mxCell>
        <mxCell id="aMiHPkYjvUGEzZOQz3G9-120" value="&lt;font size=&quot;1&quot;&gt;매 프레임 호출&lt;/font&gt;" style="text;html=1;align=center;verticalAlign=middle;whiteSpace=wrap;rounded=0;" parent="aMiHPkYjvUGEzZOQz3G9-83" vertex="1">
          <mxGeometry x="158.5" y="380" width="120" height="30" as="geometry" />
        </mxCell>
        <mxCell id="aMiHPkYjvUGEzZOQz3G9-121" value="&lt;font style=&quot;font-size: 9px;&quot;&gt;오브젝트 추가 타이밍&lt;/font&gt;" style="text;html=1;align=center;verticalAlign=middle;whiteSpace=wrap;rounded=0;" parent="aMiHPkYjvUGEzZOQz3G9-83" vertex="1">
          <mxGeometry x="168.5" y="480" width="120" height="30" as="geometry" />
        </mxCell>
      </root>
    </mxGraphModel>
  </diagram>
</mxfile>
